<svg width="637" height="106" viewBox="0 0 637 106" fill="none" xmlns="http://www.w3.org/2000/svg">
<path d="M162.514 100.247L162.807 65.8897L162.514 32.5224C162.514 32.0344 162.765 31.8252 163.211 31.8252H187.65C203.552 31.8252 213.079 39.0759 213.079 53.3961C213.079 67.7164 203.259 75.6085 187.65 75.6085H174.664L174.761 100.247C174.761 100.735 174.51 100.944 174.064 100.944H163.197C162.751 100.944 162.5 100.749 162.5 100.247H162.514ZM188.487 66.7264C195.838 66.7264 201.32 63.0173 201.32 53.5914C201.32 44.8068 196.48 40.7073 188.082 40.7073H174.705L174.552 66.7264H188.473H188.487Z" fill="#DFD3BD"/>
<path d="M210.261 100.247L210.554 75.2175L210.261 50.7881C210.261 50.3001 210.512 50.0909 210.959 50.0909H221.434C221.825 50.0909 222.076 50.2862 222.076 50.7881L221.727 59.0847C225.535 52.9215 232.189 49.6587 239.457 49.6587C240.489 49.6587 241.479 49.7563 242.316 49.9515C242.707 50.0491 242.958 50.3419 242.958 50.7463V58.248C242.958 58.6942 242.665 58.9452 242.218 58.8894C241.479 58.7918 240.586 58.6942 239.749 58.6942C230.166 58.6942 222.411 64.3275 222.076 75.8729L222.132 100.26C222.132 100.707 221.839 100.958 221.434 100.958H210.959C210.512 100.958 210.261 100.762 210.261 100.26V100.247Z" fill="#DFD3BD"/>
<path d="M235.537 75.6638C235.537 59.6703 244.925 48.9058 260.38 48.9058C275.836 48.9058 285.07 59.4751 285.321 76.849C285.321 77.2952 285.07 77.5462 284.624 77.5462H247.491C247.882 89.0498 252.625 94.1253 260.924 94.1253C267.243 94.1253 271.247 90.8206 272.683 84.0997C272.739 83.7093 272.976 83.5141 273.381 83.5141H283.508C283.898 83.5141 284.247 83.7093 284.205 84.0021C282.922 94.1253 274.58 102.115 260.799 102.115C244.353 102.115 235.565 91.1553 235.565 75.6638H235.537ZM272.53 69.8353C272.084 62.9192 268.234 56.8537 260.436 56.8537C253.224 56.8537 249.026 61.497 247.84 69.8353H272.53Z" fill="#DFD3BD"/>
<path d="M285.907 86.526L285.963 58.5828H280.09C279.644 58.5828 279.393 58.3318 279.393 57.8856V50.7743C279.393 50.3281 279.644 50.0771 280.09 50.0771H285.963L285.865 38.0297C285.865 37.5417 286.158 37.3325 286.562 37.3325H297.136C297.526 37.3325 297.777 37.5277 297.777 38.0297L297.722 50.0771H309.425C309.871 50.0771 310.122 50.3281 310.122 50.7743V57.8856C310.122 58.3318 309.871 58.5828 309.425 58.5828H297.666L297.763 86.2192C297.763 91.5457 299.884 93.2329 303.692 93.2329C305.868 93.2329 307.793 92.8843 309.271 92.4939C309.76 92.3405 310.066 92.5915 310.066 93.0796V99.5913C310.066 99.9817 309.871 100.233 309.522 100.33C306.998 101.125 303.999 101.808 301.125 101.808C293.118 101.808 285.921 97.8065 285.921 86.5121L285.907 86.526Z" fill="#DFD3BD"/>
<path d="M312.522 86.526L312.578 58.5828H306.705C306.259 58.5828 306.008 58.3318 306.008 57.8856V50.7743C306.008 50.3281 306.259 50.0771 306.705 50.0771H312.578L312.48 38.0297C312.48 37.5417 312.773 37.3325 313.178 37.3325H323.751C324.142 37.3325 324.393 37.5277 324.393 38.0297L324.337 50.0771H336.04C336.486 50.0771 336.737 50.3281 336.737 50.7743V57.8856C336.737 58.3318 336.486 58.5828 336.04 58.5828H324.281L324.379 86.2192C324.379 91.5457 326.499 93.2329 330.307 93.2329C332.483 93.2329 334.408 92.8843 335.887 92.4939C336.375 92.3405 336.682 92.5915 336.682 93.0796V99.5913C336.682 99.9817 336.486 100.233 336.138 100.33C333.627 101.125 330.614 101.808 327.74 101.808C319.734 101.808 312.536 97.8065 312.536 86.5121L312.522 86.526Z" fill="#DFD3BD"/>
<path d="M330.446 75.6222C330.446 59.5869 339.527 48.9199 355.582 48.9199C371.638 48.9199 380.565 59.3359 380.565 75.427C380.565 91.518 371.582 102.129 355.582 102.129C339.583 102.129 330.446 91.7132 330.446 75.6222ZM368.416 75.6222C368.416 63.4772 364.175 56.9097 355.485 56.9097C346.739 57.0073 342.54 63.519 342.54 75.7198C342.54 87.9205 346.892 94.1255 355.582 94.1255C364.273 94.1255 368.416 87.9624 368.416 75.6222Z" fill="#DFD3BD"/>
<path d="M385.601 74.7252V68.0453C385.601 67.6229 385.774 67.3853 386.013 67.3853H400.189C400.453 67.3853 400.601 67.6229 400.601 68.0453V74.7252C400.601 75.1476 400.453 75.3853 400.189 75.3853H386.013C385.782 75.3853 385.601 75.1476 385.601 74.7252Z" fill="#DFD3BD"/>
<path d="M404.434 78.09C404.434 77.6438 404.685 77.3928 405.131 77.3928H416.388C416.778 77.3928 417.03 77.588 417.085 78.0342C417.922 87.3625 422.219 93.191 434.759 93.191C444.342 93.191 450.41 89.9282 450.41 81.9384C450.41 64.4669 405.87 77.6995 405.87 50.7881C405.87 38.0575 415.844 30.5 432.443 30.5C449.043 30.5 458.905 37.0675 460.634 51.5829C460.69 52.071 460.439 52.3219 459.993 52.3219H448.68C448.289 52.3219 448.038 52.1267 447.982 51.6805C447.285 43.7884 441.817 39.7308 431.983 39.7308C423.446 39.7308 417.755 42.7844 417.755 49.6587C417.755 66.0983 462.448 53.2562 462.448 80.4046C462.448 94.7667 451.386 102.324 434.452 102.324C416.527 102.324 405.019 94.181 404.434 78.09Z" fill="#DFD3BD"/>
<path d="M459.728 75.6222C459.728 59.5869 468.808 48.9199 484.864 48.9199C500.919 48.9199 509.846 59.3359 509.846 75.427C509.846 91.518 500.863 102.129 484.864 102.129C468.864 102.129 459.728 91.7132 459.728 75.6222ZM497.711 75.6222C497.711 63.4772 493.47 56.9097 484.78 56.9097C476.034 57.0073 471.835 63.519 471.835 75.7198C471.835 87.9205 476.187 94.1255 484.878 94.1255C493.568 94.1255 497.711 87.9624 497.711 75.6222Z" fill="#DFD3BD"/>
<path d="M510.488 86.526L510.544 58.5828H504.671C504.225 58.5828 503.974 58.3318 503.974 57.8856V50.7743C503.974 50.3281 504.225 50.0771 504.671 50.0771H510.544L510.446 38.0297C510.446 37.5417 510.739 37.3325 511.143 37.3325H521.717C522.107 37.3325 522.358 37.5277 522.358 38.0297L522.303 50.0771H534.006C534.452 50.0771 534.703 50.3281 534.703 50.7743V57.8856C534.703 58.3318 534.452 58.5828 534.006 58.5828H522.247L522.344 86.2192C522.344 91.5457 524.465 93.2329 528.273 93.2329C530.449 93.2329 532.374 92.8843 533.852 92.4939C534.341 92.3405 534.648 92.5915 534.648 93.0796V99.5913C534.648 99.9817 534.452 100.233 534.104 100.33C531.579 101.125 528.58 101.808 525.706 101.808C517.699 101.808 510.502 97.8065 510.502 86.5121L510.488 86.526Z" fill="#DFD3BD"/>
<path d="M528.371 75.6638C528.371 59.6703 537.759 48.9058 553.214 48.9058C568.67 48.9058 577.904 59.4751 578.155 76.849C578.155 77.2952 577.904 77.5462 577.458 77.5462H540.325C540.716 89.0498 545.459 94.1253 553.758 94.1253C560.077 94.1253 564.081 90.8206 565.517 84.0997C565.573 83.7093 565.81 83.5141 566.215 83.5141H576.342C576.732 83.5141 577.081 83.7093 577.039 84.0021C575.756 94.1253 567.414 102.115 553.633 102.115C537.187 102.115 528.399 91.1553 528.399 75.6638H528.371ZM565.35 69.8353C564.904 62.9192 561.054 56.8537 553.256 56.8537C546.044 56.8537 541.846 61.497 540.66 69.8353H565.35Z" fill="#DFD3BD"/>
<path d="M576.411 100.247L576.704 66.1407L576.411 32.5224C576.411 32.0344 576.662 31.8252 577.109 31.8252H587.473C587.919 31.8252 588.17 32.0204 588.17 32.5224L587.919 66.0849L588.17 100.247C588.17 100.735 587.919 100.944 587.473 100.944H577.109C576.662 100.944 576.411 100.749 576.411 100.247Z" fill="#DFD3BD"/>
<path d="M586.482 75.6222C586.482 59.5869 595.563 48.9199 611.619 48.9199C627.674 48.9199 636.601 59.3359 636.601 75.427C636.601 91.518 627.618 102.129 611.619 102.129C595.619 102.129 586.482 91.7132 586.482 75.6222ZM624.452 75.6222C624.452 63.4772 620.211 56.9097 611.521 56.9097C602.775 57.0073 598.576 63.519 598.576 75.7198C598.576 87.9205 602.928 94.1255 611.619 94.1255C620.309 94.1255 624.452 87.9624 624.452 75.6222Z" fill="#DFD3BD"/>
<path d="M66.3327 79.3553C65.7996 79.6218 65.3172 79.9517 64.8984 80.3323C56.0259 88.3006 47.42 91.4726 40.5403 91.4726C31.0332 91.4726 25.0547 85.9532 25.0547 76.6273C25.0547 75.4473 25.3213 74.0897 25.7783 72.9985C38.2809 81.5123 57.016 76.5385 57.016 64.4085C56.9271 48.6497 40.4515 46.9367 27.5045 53.9914C27.1364 52.3673 26.9587 50.5529 26.9587 48.5608C26.9587 46.8479 27.2253 44.8559 27.8599 42.6862C32.9372 44.3991 38.4587 45.3126 44.6148 45.3126C57.5618 45.3126 64.7207 36.71 64.7207 27.7521C64.7207 19.4159 58.1964 10.9147 45.7953 10.9147C35.92 11.0035 27.8599 17.335 22.3384 25.5697C17.1723 21.0526 14.1895 14.6197 13.8214 7.38736C13.6437 4.03766 11.0162 1.5 7.66521 1.5C3.78112 1.58882 1.33136 4.76089 1.50906 8.1106C2.14372 20.0503 7.57636 30.277 16.7281 36.9764C15.2811 41.1382 14.5576 45.0335 14.5576 48.5608C14.5576 54.1818 15.5476 58.9779 17.2739 62.7717C14.3672 66.7558 12.6536 71.3744 12.6536 76.6273C12.6536 92.9191 24.2424 103.869 40.5403 103.869C49.5651 103.869 59.8973 100.38 70.331 92.0055C68.4524 88.2625 67.1704 83.9358 66.3327 79.3553ZM44.6148 64.4085C44.6148 67.035 39.1822 67.5679 34.2953 64.3197C39.271 61.6932 44.6148 61.2364 44.6148 64.4085ZM45.7953 23.3112C50.5044 23.4 52.3068 25.392 52.3068 27.7521C52.3068 30.3785 50.0474 32.9035 44.6148 32.9035C40.5403 32.9035 36.7324 32.4594 33.2926 31.457C36.7324 26.7497 41.2638 23.3112 45.7953 23.3112Z" fill="#E5B1A4" stroke="#45140C" stroke-width="3" stroke-miterlimit="10"/>
<path d="M117.765 43.853C113.335 43.853 110.162 48.8395 110.162 51.9101C110.162 55.3486 115.049 58.9775 118.679 58.9775C123.02 58.9775 125.737 55.3486 125.737 51.6436C125.737 48.5604 121.662 43.853 117.765 43.853Z" fill="#B5AD21" stroke="#45140C" stroke-width="3" stroke-miterlimit="10"/>
<path d="M146.921 78.3397C144.928 78.3397 143.215 79.1518 142.034 80.6109C138.683 84.6839 135.878 86.0415 133.53 86.0415C129.722 86.0415 126.003 79.3421 123.198 73.2771C119.847 65.4865 108.804 69.1153 110.708 77.5277C110.847 77.9591 110.099 78.492 108.943 79.1391C107.877 79.4436 106.951 80.04 106.176 80.8774C100.845 86.3968 94.9557 91.8274 89.523 91.8274C84.9916 91.8274 81.9199 88.5665 80.0159 82.9583C90.602 69.3818 97.5832 48.4715 97.5832 34.7174C97.5832 19.7833 89.2438 16.4336 83.6335 16.4336C73.9486 16.4336 64.9873 28.1068 64.9873 62.8727C64.9873 68.316 65.3554 74.0003 66.3328 79.3548C67.1705 83.9353 68.4525 88.262 70.3311 92.005C74.0248 99.3642 80.0413 104.414 89.523 104.414C100.109 104.414 109.172 95.9891 115.328 89.5689C115.899 88.9725 116.305 88.3 116.585 87.6022C120.532 93.6799 125.901 98.6156 133.53 98.6156C139.864 98.6156 146.02 95.545 151.719 88.668C154.626 85.2168 152.9 78.3397 146.921 78.3397ZM78.0231 49.1947C79.2924 33.7277 82.5545 29.0204 83.6335 29.0204C85.3597 29.0204 84.9916 33.6262 84.9916 34.7174C84.9916 42.0512 82.0087 53.09 77.5662 62.7712C77.5662 57.5309 77.7566 53.0012 78.0231 49.1947Z" fill="#E5B1A4" stroke="#45140C" stroke-width="3" stroke-miterlimit="10"/>
</svg>
