<svg width="681" height="158" viewBox="0 0 681 158" fill="none" xmlns="http://www.w3.org/2000/svg">
<path d="M233.346 31.0582C233.616 32.0582 235.076 33.1882 234.516 34.5182C233.326 37.1682 229.876 35.6682 227.446 36.5682L220.296 39.2082C218.126 40.0082 216.586 42.3682 213.016 42.1282C212.186 42.0682 211.036 42.4982 210.246 42.8482C209.456 43.1982 209.416 44.6282 209.306 45.5582L208.426 46.3782C206.526 46.0782 204.786 46.3482 203.256 47.7282C201.916 48.9482 200.846 50.3682 201.386 52.4082C201.466 52.7182 201.336 53.0782 201.386 53.3982C200.626 53.6682 199.776 54.2482 199.746 54.9282C199.746 54.7082 204.076 62.8582 204.176 61.5782C203.856 62.7682 203.966 64.2082 204.696 65.2682C202.396 70.3582 198.656 70.6782 198.676 70.6282C197.526 73.1382 200.466 73.0982 202.176 73.9182C203.516 74.5582 205.336 72.7682 206.536 73.0682C211.166 74.2382 208.446 86.3282 215.576 84.4482C217.086 87.3682 221.436 88.2082 224.356 86.3382C228.076 91.5182 229.336 91.0582 235.346 94.3682C235.366 94.8982 236.336 95.3882 236.226 95.9482C235.696 98.6882 232.496 99.1282 229.546 101.808C231.556 105.078 233.836 108.688 237.196 110.338C237.176 111.338 237.296 112.598 238.166 113.098C240.226 114.298 245.556 110.538 244.336 113.918C244.166 114.398 243.766 114.928 243.646 115.638C243.546 116.188 243.476 116.808 243.486 117.368C243.526 119.488 242.566 123.058 245.346 124.078C247.056 124.708 249.426 124.338 249.116 126.388C248.826 126.388 248.526 126.398 248.246 126.378C243.516 125.948 239.146 126.908 234.236 128.008L227.466 129.518C222.736 130.578 216.886 130.058 212.696 132.788C207.356 136.268 210.116 150.498 209.256 156.508C205.906 156.588 203.186 156.458 200.006 155.558C201.486 153.688 203.186 155.138 204.746 154.158L206.356 146.488C202.016 143.628 197.136 145.208 192.406 144.168C190.026 143.638 191.686 139.208 192.616 137.798C193.986 135.728 192.956 133.368 193.166 131.558C194.706 118.338 190.286 111.368 189.056 98.7882C172.996 95.3782 171.716 95.5382 160.236 85.3682C156.406 81.9682 152.086 78.9982 149.756 73.6382C148.076 69.7682 145.906 65.2682 145.206 61.1582C144.376 56.2982 144.086 49.0882 140.476 42.2682C143.566 41.3382 145.186 38.4182 146.166 36.6282L155.746 35.9982C156.156 34.8282 155.596 33.4782 155.696 32.1782C159.056 27.7982 165.946 25.9882 169.966 30.1882C169.126 27.2182 175.926 23.0282 177.896 21.1482C177.666 17.9182 177.056 15.0782 177.996 11.6482C180.566 13.7082 178.486 15.7982 179.516 17.9682C181.586 18.1782 185.096 19.2582 186.556 17.6482L188.446 10.3882C186.886 11.9582 197.446 18.3182 196.026 18.0382C197.486 18.3182 198.486 17.3782 199.756 16.7982C203.756 14.9782 207.566 17.2182 211.366 17.7882C217.116 18.6482 221.416 21.0882 225.496 25.2582L232.236 32.1582C232.976 31.8582 233.146 31.2782 233.366 31.0482L233.346 31.0582Z" fill="#45140C"/>
<path d="M113.286 31.228C113.066 34.388 113.666 37.648 113.216 41.218C113.076 42.358 110.896 42.298 110.316 42.348L109.406 42.278C114.266 38.718 83.5061 40.738 83.3161 40.778L73.3161 42.958C70.4261 43.588 68.2761 47.878 67.3961 50.148C66.5061 50.368 65.6361 51.738 65.2161 52.468C60.6361 51.588 60.1761 56.648 58.9161 59.998C54.1161 72.778 61.666 74.438 61.6561 88.998C65.6361 88.908 67.7561 92.218 70.7161 93.798C74.4961 95.808 79.6061 92.748 83.1061 95.308L83.5361 99.558C83.6461 100.698 85.6761 99.998 86.5361 100.388C87.5661 100.858 89.566 103.008 88.9761 104.288C85.896 110.978 76.0261 107.468 69.9661 104.028C68.4061 109.938 67.6861 124.348 61.2461 124.288C59.9861 124.278 58.3761 124.228 57.8361 125.318C55.8661 129.308 60.3561 130.908 59.1261 134.048C56.8061 134.888 53.1261 133.578 51.3061 135.218C48.0961 141.238 39.7761 135.968 39.4661 140.308C37.3161 140.208 35.2261 139.928 33.4261 138.598C33.2961 138.328 33.2661 137.808 33.3061 137.508C33.7461 133.658 33.0961 130.128 31.4061 126.208L33.8661 118.288C35.0361 118.288 36.0561 118.488 36.3261 117.838C36.5161 117.398 36.3461 116.548 35.8161 116.338C35.4461 116.188 34.4361 116.998 33.5961 117.028C32.9761 115.628 33.3661 113.798 33.3061 112.318C33.2161 109.818 34.6661 107.548 34.0061 104.548C30.6361 104.488 27.3361 105.288 24.4061 106.308C21.6161 105.818 18.2761 106.048 15.9661 103.748C15.2361 103.018 15.2461 101.318 15.3361 100.238C15.3961 99.588 16.5261 99.928 17.7561 99.788C18.3861 97.528 18.1361 95.398 18.2461 93.318H19.3361C19.5061 94.668 18.8561 97.498 21.4861 97.288C22.2761 97.228 22.1461 94.868 22.9661 94.468C23.9361 93.998 25.5261 95.278 26.6061 95.278C28.8061 94.068 30.6661 91.588 32.2961 89.488L26.0761 81.608C25.8461 81.318 19.2561 71.278 17.1961 72.308C15.3661 69.628 13.3661 67.348 11.9761 63.448C9.00605 55.148 5.47605 47.248 1.65605 39.218C0.306055 36.388 -1.53395 31.528 2.24605 30.328C4.68606 30.068 7.28606 29.738 9.07606 32.418C10.2161 28.838 12.6761 29.088 15.2761 28.178C38.8761 19.888 40.5461 23.408 41.5261 23.108C42.2161 22.898 42.6561 20.998 43.6361 20.858C43.4161 20.888 64.4161 15.898 62.5361 14.338C70.4161 12.878 78.0061 13.138 86.2861 13.878C98.4661 14.968 108.296 20.508 113.296 31.208L113.286 31.228Z" fill="#45140C"/>
<path d="M377.216 41.688C376.176 41.768 374.996 41.058 374.296 40.328C373.946 39.968 374.496 38.388 373.256 38.378L355.386 38.228C354.166 38.218 353.346 37.018 352.176 36.618C348.216 40.538 334.076 35.008 331.196 46.038C330.876 46.168 330.476 46.548 330.136 46.538C323.536 46.338 322.016 55.928 322.996 63.188C324.096 71.398 323.846 71.218 331.406 76.208L341.576 82.918C343.416 84.138 346.156 83.398 347.956 84.698C350.046 86.198 352.096 86.798 354.286 86.088C357.616 86.898 363.076 87.938 365.296 85.418L369.516 80.638C370.666 79.328 374.626 79.438 374.656 77.288C374.516 75.108 370.946 72.978 371.676 70.118C372.396 68.478 376.326 69.738 378.286 70.538C380.016 69.408 378.716 67.388 379.206 66.298C380.626 63.788 383.646 62.508 386.386 61.998C387.256 61.838 388.276 62.618 388.936 61.518C389.406 60.738 389.406 59.758 390.526 58.668C390.426 61.248 392.446 62.928 395.016 63.028C394.196 65.078 392.506 64.428 391.386 64.728L390.326 64.558C388.836 64.318 387.326 64.278 385.426 64.418C384.656 67.988 385.636 70.938 389.106 72.948C382.516 83.168 375.996 78.028 377.196 83.368C374.916 84.498 371.116 83.278 370.596 87.518C370.506 88.258 371.996 88.588 372.256 89.068C372.916 90.308 375.236 90.448 376.776 90.878C377.796 91.598 376.276 93.448 376.306 94.288C368.956 94.528 377.866 100.238 374.366 103.418C373.566 103.508 372.976 102.528 372.306 102.428C371.906 99.728 368.726 100.748 366.566 100.038C362.676 98.768 359.596 96.058 355.306 96.208C352.566 96.308 350.556 97.378 349.776 100.058C349.186 102.078 351.086 103.268 353.896 105.418C348.776 107.688 347.136 117.158 351.236 120.318C353.216 121.848 354.846 124.988 355.486 127.288C355.886 128.708 355.126 130.188 356.966 131.958C351.656 131.898 348.036 135.048 344.146 138.328C341.416 136.618 341.126 133.548 340.026 130.638C339.316 129.868 337.926 131.248 337.276 131.328C336.426 131.438 334.726 131.188 334.176 130.408C333.626 129.628 333.656 128.268 332.016 127.678L328.026 138.418C326.766 137.098 327.256 135.648 326.536 134.768C326.246 134.418 325.606 134.618 325.276 135.498C324.466 135.588 323.846 134.768 323.336 134.408C322.836 132.008 320.766 130.428 318.206 130.498L316.416 130.538C315.616 130.078 314.996 130.728 315.556 131.488L315.496 132.498C311.276 130.378 317.946 127.808 317.286 122.168C317.066 120.328 319.116 118.728 319.506 116.538C312.486 112.128 326.916 94.728 323.606 89.958C314.106 88.808 305.926 83.948 299.046 78.338C299.046 76.298 299.786 73.958 298.676 71.828C297.846 71.358 296.356 71.838 296.176 71.318L294.926 67.728C293.596 63.918 290.276 61.058 291.646 56.308C289.326 56.258 291.156 58.168 290.206 59.378C288.616 59.898 288.236 57.788 287.526 56.618C286.816 55.448 288.916 54.398 288.836 53.428C288.356 49.788 284.426 46.768 283.816 43.178L280.806 25.368L281.536 14.998C283.586 14.898 285.886 12.118 288.036 12.398C292.566 12.988 295.506 11.388 299.406 10.648C306.916 9.21801 314.656 10.968 322.346 10.268C324.166 10.108 325.586 8.44801 327.336 8.46801C333.996 8.51801 340.566 7.70801 347.086 8.78801C353.506 9.84801 363.646 12.818 369.096 15.618C370.456 16.318 370.476 19.728 372.746 19.948C379.156 20.558 381.246 42.088 377.216 41.708V41.688Z" fill="#45140C"/>
<path d="M497.316 15.198C497.246 17.198 498.706 18.318 500.876 18.728C504.716 19.458 506.496 22.928 509.416 25.158C510.776 26.188 512.826 27.208 512.276 28.668C511.936 29.578 510.856 31.358 509.576 31.438C506.536 31.618 505.886 35.058 504.036 35.728C500.626 36.958 498.306 37.118 497.236 40.358C494.676 40.728 493.236 41.728 491.316 43.478C477.736 55.908 485.786 59.268 482.866 63.688C479.076 69.428 481.696 74.658 485.306 78.358C489.916 83.078 495.376 88.018 503.096 85.738C507.506 84.438 510.696 79.948 515.126 79.188C518.606 81.438 518.286 84.918 521.646 84.018C522.316 83.838 522.876 83.028 523.186 82.228L528.206 81.208C528.926 81.418 531.236 80.858 531.196 82.428C531.166 83.558 529.566 84.328 529.416 85.108C529.166 86.398 528.646 88.338 530.586 88.078C530.846 88.048 531.126 88.158 531.386 88.158C530.686 90.148 532.146 90.568 533.776 90.388C535.056 90.248 537.116 90.988 537.136 89.138C537.136 88.918 537.096 88.658 537.156 88.448C538.376 88.628 539.166 88.788 539.276 89.818C539.666 93.398 535.626 91.288 535.286 94.338C534.656 94.338 533.996 94.548 533.366 94.468C522.406 93.128 521.506 97.468 510.076 99.128C508.926 103.258 507.956 110.608 510.596 114.018C512.616 115.688 517.766 114.628 517.286 118.408C513.766 118.268 513.166 122.448 513.226 125.798C510.986 126.538 509.006 126.478 507.236 126.648C506.716 126.698 505.966 126.498 505.456 126.358C507.056 125.128 498.496 121.658 495.056 122.388C493.046 122.818 492.166 123.968 491.626 126.278C491.086 128.588 487.106 129.848 487.196 132.448C485.236 133.298 483.556 134.508 481.376 134.368C480.866 129.828 475.406 134.668 473.366 130.898C472.286 128.888 474.536 127.278 474.476 125.648C474.286 120.518 472.436 115.198 472.846 109.568C473.226 104.488 471.116 99.218 465.066 98.638C457.246 97.888 449.296 98.538 441.286 98.308C440.116 98.278 440.376 99.818 440.286 100.328C440.186 100.878 439.316 101.578 438.776 101.708C436.866 101.468 434.986 103.468 432.886 101.288C434.196 99.898 435.866 99.668 436.306 98.148C436.476 97.568 437.686 97.358 437.676 96.578C437.656 95.668 437.076 94.798 437.026 94.208C436.966 93.428 436.986 91.518 437.796 91.028C440.766 89.228 444.646 90.788 447.746 89.398C452.716 87.158 444.976 78.528 445.006 78.538C442.236 78.008 443.406 80.728 436.476 73.338C437.786 71.018 436.696 71.208 434.836 72.668C431.926 72.458 433.706 65.408 432.736 65.318C431.906 65.238 430.696 64.998 430.346 65.798C430.156 66.238 431.186 66.998 430.956 67.988C425.726 65.788 434.096 62.278 430.396 56.658C428.196 58.798 429.126 61.388 425.896 62.728C424.476 58.078 428.046 54.988 431.926 53.848C434.216 53.178 435.086 49.628 437.316 49.178C438.306 48.978 439.626 50.448 440.366 49.708C440.916 49.148 442.816 48.508 442.186 47.428C441.336 45.968 439.236 45.668 440.146 44.338C440.916 43.218 442.516 41.108 443.356 42.578C443.996 43.698 443.416 45.218 444.686 45.478C445.476 45.638 446.846 46.038 447.236 45.088C448.456 42.108 446.396 38.768 448.166 36.278C449.646 36.088 452.426 37.688 453.326 36.148C455.866 31.758 451.496 31.118 453.946 29.738C454.556 29.398 455.736 29.708 456.916 29.948C457.236 28.428 456.546 27.358 456.406 26.218C460.676 23.868 464.286 20.198 469.016 17.928C477.976 13.628 488.156 13.248 497.306 15.168L497.316 15.198ZM494.426 16.328C494.426 15.978 494.146 15.698 493.796 15.698C493.446 15.698 493.166 15.978 493.166 16.328C493.166 16.678 493.446 16.958 493.796 16.958C494.146 16.958 494.426 16.678 494.426 16.328ZM450.296 45.828C450.296 45.548 450.076 45.328 449.796 45.328C449.516 45.328 449.296 45.548 449.296 45.828C449.296 46.108 449.516 46.328 449.796 46.328C450.076 46.328 450.296 46.108 450.296 45.828ZM449.296 47.828C449.296 47.548 449.076 47.328 448.796 47.328C448.516 47.328 448.296 47.548 448.296 47.828C448.296 48.108 448.516 48.328 448.796 48.328C449.076 48.328 449.296 48.108 449.296 47.828ZM525.136 88.928C525.256 90.528 526.196 90.648 526.786 90.328C527.336 90.038 527.566 89.398 527.296 88.838C527.026 88.278 526.176 87.728 525.136 88.928Z" fill="#45140C"/>
<path d="M657.216 65.198C655.146 63.738 650.986 76.648 651.366 77.518C650.976 77.908 650.146 78.398 649.586 78.448C643.196 79.018 637.476 86.108 640.056 92.488C641.166 95.218 645.836 93.618 647.506 95.038C650.366 97.468 651.576 100.968 655.386 102.418C657.296 100.348 664.496 98.678 664.826 101.488L666.096 112.308C653.386 118.938 645.246 112.978 642.016 124.108C639.876 131.488 643.226 137.278 639.376 138.448C638.646 137.688 637.866 136.968 637.046 136.308C637.156 134.568 635.666 134.418 634.676 134.258C633.526 134.078 626.576 135.808 626.396 140.488C624.946 138.088 625.606 136.188 625.226 134.258C626.016 132.038 625.206 129.358 626.616 126.768C629.006 122.358 627.156 117.298 625.296 113.338C624.746 112.168 626.216 109.898 623.766 110.228C623.526 110.258 614.996 113.478 617.176 114.288C616.886 114.318 616.596 114.398 616.306 114.408C613.406 114.478 609.796 114.298 608.816 118.398C607.886 116.758 607.736 115.028 606.286 114.658C602.396 113.648 599.086 115.158 596.966 114.328C593.326 112.908 600.776 108.648 600.206 106.478C600.726 106.218 601.646 106.058 602.236 106.048C606.656 105.938 607.326 101.268 609.806 98.288C611.156 96.668 615.536 97.268 615.436 94.428C615.696 94.448 615.996 94.358 616.246 94.428C618.246 94.888 619.746 94.788 621.356 93.048C622.336 91.988 622.326 89.718 623.146 88.538C628.836 80.318 630.056 70.338 625.316 61.518C623.936 58.958 623.996 56.808 619.566 55.678C618.256 55.338 616.636 53.468 614.756 53.598C613.076 53.708 611.826 54.498 610.226 56.628C608.936 55.138 609.366 53.888 608.846 53.208C607.876 51.968 596.516 51.278 597.306 54.368C594.166 54.428 591.166 55.298 587.136 55.698C584.546 51.538 580.466 58.838 575.996 56.228C572.916 54.428 578.386 46.348 577.156 41.558C579.036 39.428 580.376 35.968 582.956 33.978C601.546 19.628 602.166 16.248 629.266 12.078C638.036 10.728 646.306 8.29799 655.156 8.31799C662.696 17.738 659.446 55.938 657.216 65.228V65.198Z" fill="#45140C"/>
<path d="M379.216 66.2878C378.726 67.3778 380.026 69.3978 378.296 70.5278C376.336 69.7278 372.406 68.4678 371.686 70.1078C370.956 72.9778 374.526 75.1078 374.666 77.2778C374.626 79.4278 370.676 79.3178 369.526 80.6278L365.306 85.4078C363.076 87.9278 357.626 86.8878 354.296 86.0778C358.626 84.6578 364.396 85.1278 366.786 80.7978C366.036 79.8278 364.216 76.7278 366.316 76.6778C367.866 76.6378 371.356 79.4178 372.076 77.2978C372.756 74.4578 369.316 72.1578 369.386 69.3178C370.016 64.4678 374.306 60.4078 374.146 55.5178C374.066 52.8878 369.946 54.8478 368.706 55.5978C361.236 60.1478 352.586 59.4678 344.186 58.6078C338.906 58.0678 332.796 56.8578 330.516 51.0678C328.496 45.9478 353.226 63.8078 373.776 48.4378C375.146 47.4178 378.066 47.9778 378.006 45.7478C377.966 44.4578 378.006 42.8678 377.206 41.6878C381.236 42.0678 379.146 20.5378 372.736 19.9278C370.466 19.7078 370.446 16.2978 369.086 15.5978C363.636 12.7978 353.496 9.8278 347.076 8.7678C340.556 7.6878 333.976 8.4978 327.326 8.4478C325.586 8.4378 324.156 10.0878 322.336 10.2478C314.636 10.9478 306.906 9.19781 299.396 10.6278C295.496 11.3678 292.556 12.9678 288.026 12.3778C285.876 12.0978 283.576 14.8778 281.526 14.9778L280.796 25.3478L283.806 43.1578C284.416 46.7378 288.346 49.7678 288.826 53.4078C288.906 54.3878 286.826 55.4478 287.516 56.5978C288.206 57.7478 288.606 59.8778 290.196 59.3578C291.156 58.1478 289.316 56.2378 291.636 56.2878C290.266 61.0378 293.586 63.8978 294.916 67.7078L296.166 71.2978C296.346 71.8178 297.846 71.3378 298.666 71.8078C299.776 73.9278 299.036 76.2778 299.036 78.3178C293.736 73.9878 289.026 70.3778 286.606 62.7478C282.506 49.8178 278.936 36.3678 277.676 22.3678C277.426 19.6378 279.286 15.5178 280.416 13.5578C283.186 8.7778 307.336 8.5378 310.226 8.2278L330.886 5.9778C342.146 4.7478 353.806 5.99781 364.156 10.4878C378.996 16.9378 380.836 24.2778 381.446 39.3478C381.836 48.9978 379.966 57.7478 374.346 66.2978C376.786 68.0078 377.726 66.4578 379.196 66.2678L379.216 66.2878Z" fill="#45140C"/>
<path d="M587.136 55.6781C585.096 55.8781 582.856 56.9281 580.416 57.5681C578.616 58.0381 579.656 62.0981 581.206 61.9681C589.646 61.2781 593.866 53.7281 595.126 57.9581C596.386 62.1881 586.226 65.3481 581.626 64.5881C582.036 65.5681 582.066 67.3081 582.716 68.0081C592.296 70.7881 602.246 64.5781 607.986 56.3281C604.086 54.2881 600.826 55.6281 597.306 54.3581C596.526 51.2581 607.886 51.9481 608.846 53.1981C609.366 53.8681 608.936 55.1281 610.226 56.6181C611.826 54.4881 613.076 53.6981 614.756 53.5881C616.636 53.4581 618.246 55.3381 619.566 55.6681C623.986 56.7981 623.936 58.9481 625.316 61.5081C621.806 60.1081 617.946 55.6781 613.496 57.7281C609.776 59.4381 607.436 64.4281 604.126 67.0481C596.426 73.1481 587.546 72.2281 586.446 74.8581C585.346 77.4881 596.266 80.1281 594.196 89.0581C593.746 90.9781 592.816 92.7581 594.126 94.1581C592.986 94.9581 591.846 95.0581 590.486 94.5081C590.016 93.3481 588.606 92.5381 589.146 90.3081C591.116 82.1881 581.436 85.1081 574.686 61.9681C572.686 55.1081 572.516 46.7981 577.166 41.5381C578.396 46.3281 572.926 54.4081 576.006 56.2081C580.476 58.8281 584.556 51.5281 587.146 55.6781H587.136Z" fill="#45140C"/>
<path d="M649.586 78.438C650.166 80.068 642.036 84.738 640.756 89.278C643.806 93.428 649.256 92.588 652.066 95.548L655.346 98.998C656.506 100.218 658.646 98.418 660.306 98.398C674.146 98.298 673.396 85.918 676.746 87.448C678.636 88.318 681.086 106.578 680.936 109.138C680.686 113.388 674.556 113.788 671.506 114.438C662.876 116.278 654.846 118.128 646.656 120.748C643.806 122.158 644.546 127.468 643.906 129.978C641.336 140.178 647.606 138.908 646.086 142.518C644.286 146.778 628.526 148.128 623.936 147.038C623.006 142.168 623.916 138.008 625.256 134.228C625.626 136.158 624.966 138.058 626.426 140.458C626.606 135.778 633.556 134.048 634.706 134.228C635.706 134.388 637.196 134.538 637.076 136.278C634.516 136.498 631.446 136.188 629.016 137.918C627.936 138.688 628.176 141.308 628.806 142.158C630.076 143.898 637.156 142.338 638.236 141.798C639.306 141.268 639.116 139.458 639.406 138.418C643.256 137.248 639.906 131.468 642.046 124.078C645.276 112.958 653.416 118.908 666.126 112.278L664.856 101.458C664.526 98.648 657.326 100.318 655.416 102.388C651.606 100.938 650.396 97.438 647.536 95.008C645.866 93.588 641.186 95.188 640.086 92.458C637.496 86.078 643.226 78.998 649.616 78.418L649.586 78.438ZM676.066 107.878L675.076 100.538C672.776 99.688 670.436 100.058 668.596 101.548C668.176 104.508 668.076 107.058 668.546 109.818C671.406 110.708 674.166 110.308 676.066 107.878Z" fill="#45140C"/>
<path d="M233.346 31.058C233.126 31.278 232.956 31.868 232.216 32.168L225.476 25.268C221.396 21.098 217.096 18.658 211.346 17.798C207.546 17.228 203.736 14.978 199.736 16.808C198.466 17.388 197.456 18.338 196.006 18.048C197.436 18.328 186.866 11.968 188.426 10.398L186.536 17.658C185.086 19.268 181.576 18.188 179.496 17.978C178.466 15.808 180.546 13.718 177.976 11.658C177.036 15.088 177.656 17.938 177.876 21.158C175.916 23.048 169.116 27.228 169.946 30.198C165.926 25.998 159.026 27.808 155.676 32.188C155.576 33.488 156.136 34.828 155.726 36.008L146.146 36.638C145.166 38.428 143.546 41.348 140.456 42.278C144.056 49.088 144.356 56.308 145.186 61.168L136.346 41.848C141.986 36.298 148.166 33.318 154.396 29.438C164.526 23.128 162.296 26.428 172.776 21.848C173.346 19.468 175.216 15.908 175.036 13.638C171.636 7.22799 178.396 0.677986 181.426 0.117986C183.366 -0.242014 187.766 0.0979857 188.516 2.89799C194.496 24.998 204.346 6.60798 223.336 20.378C227.426 23.338 232.036 26.138 233.346 31.058ZM184.966 15.288C185.906 11.578 185.106 7.88799 182.306 4.93799C179.416 8.08799 179.966 17.288 182.776 16.248C183.166 16.108 184.706 16.298 184.966 15.288Z" fill="#45140C"/>
<path d="M372.336 102.418L361.636 100.808C359.386 100.468 357.536 98.6482 355.196 98.6482C353.296 98.6482 353.136 100.538 353.006 101.898C352.716 104.888 363.486 110.088 366.816 111.668C368.946 112.678 369.256 114.268 370.366 115.508C371.596 116.888 374.286 117.148 374.886 119.788C375.236 121.328 376.216 122.528 377.576 122.718C377.226 124.988 376.566 127.558 377.726 130.228C378.356 131.688 382.866 132.198 382.886 130.688C382.916 128.458 381.186 127.008 381.346 125.408C382.846 124.598 384.696 124.248 386.446 125.448C389.176 125.398 391.876 124.308 393.346 122.178C399.296 122.218 405.276 120.278 409.086 115.378C409.406 116.598 410.146 118.138 408.906 119.418C408.166 120.178 406.546 120.138 405.046 121.358C406.526 122.798 408.096 122.188 409.396 122.578C408.346 123.678 407.566 125.388 406.736 127.148C406.496 127.658 404.556 127.538 404.346 127.058C404.136 126.578 405.616 124.748 405.136 124.168C403.166 121.798 400.556 126.298 398.826 126.488C394.036 127.038 388.946 126.028 385.106 129.998C394.906 134.298 384.546 135.108 401.006 132.618L400.366 128.658C402.936 127.488 405.686 129.078 408.186 128.938C410.066 128.838 411.056 126.448 411.146 124.828C411.206 123.788 411.086 122.088 409.696 121.478C409.846 121.088 408.936 119.858 409.356 119.588C411.826 119.218 413.606 119.128 415.186 118.338C414.986 121.958 415.986 126.068 414.816 129.938C413.966 132.758 409.536 131.698 407.896 133.028C399.996 139.458 382.086 140.518 374.576 133.668C371.456 130.828 372.966 124.618 373.526 119.998C365.936 116.908 359.386 112.828 352.626 108.428C352.576 119.468 349.746 115.248 351.256 120.308C347.156 117.158 348.796 107.678 353.916 105.408C351.106 103.258 349.206 102.068 349.796 100.048C350.576 97.3682 352.586 96.2982 355.326 96.1982C359.606 96.0382 362.696 98.7482 366.586 100.028C368.746 100.738 371.926 99.7182 372.326 102.418H372.336Z" fill="#45140C"/>
<path d="M235.336 94.3478C229.316 91.0378 228.056 91.5078 224.346 86.3178C227.406 84.3578 230.606 82.2578 233.326 79.4978C225.736 75.5778 236.436 56.2378 232.616 54.4378C228.986 52.7278 225.286 62.8778 212.276 61.6078C209.516 61.3378 206.586 63.1678 204.166 61.5578C204.076 62.8378 199.746 54.6878 199.736 54.9078C199.766 54.2378 200.616 53.6578 201.376 53.3778C202.416 54.2278 202.486 56.6678 204.166 57.3378C213.486 60.9378 224.296 55.6078 232.086 50.2978C233.376 49.4178 234.366 50.1578 234.296 48.6878C233.916 41.1278 221.656 56.6978 212.746 51.5278C217.376 46.8078 226.056 47.8278 234.026 41.4578C230.946 37.5078 226.436 39.2078 223.436 41.3078C225.366 39.9578 208.246 46.8078 209.306 45.5478C209.416 44.6078 209.436 43.1878 210.246 42.8378C211.056 42.4878 212.186 42.0578 213.016 42.1178C216.586 42.3578 218.126 40.0078 220.296 39.1978L227.446 36.5578C229.876 35.6578 233.326 37.1578 234.516 34.5078C241.986 40.5978 238.456 60.6478 234.876 67.3378C232.676 71.4578 237.206 72.3978 237.876 74.4978C239.656 79.9978 233.716 84.7878 229.006 87.8578C231.176 90.7478 235.186 90.9378 235.326 94.3478H235.336Z" fill="#45140C"/>
<path d="M522.556 54.3578C521.696 55.8378 521.576 57.5778 521.466 59.2578C516.906 54.6678 517.116 37.5478 512.176 44.3478C504.896 54.3778 494.946 62.0878 483.246 65.7978C482.326 70.9678 484.436 74.4378 485.326 78.3678C481.716 74.6678 479.096 69.4378 482.886 63.6978C485.806 59.2778 477.756 55.9078 491.336 43.4878C493.256 41.7278 494.696 40.7278 497.256 40.3678C489.926 48.1678 487.866 46.4878 485.126 60.3278C493.866 59.4478 504.136 49.1178 508.926 42.7378C511.146 39.7778 514.866 37.7878 512.876 32.8878C511.216 33.8378 509.456 33.9578 507.616 34.7278C508.566 39.6978 494.976 55.2178 490.926 50.3078C495.066 46.7378 499.736 44.7678 500.976 39.8378L497.256 40.3778C498.326 37.1478 500.646 36.9778 504.056 35.7478C505.906 35.0778 506.556 31.6378 509.596 31.4578C510.876 31.3778 511.946 29.6078 512.296 28.6878C512.846 27.2178 510.796 26.2078 509.436 25.1778C506.516 22.9478 504.726 19.4778 500.896 18.7478C498.736 18.3378 497.266 17.2178 497.336 15.2178C499.846 15.7478 501.866 15.1278 504.576 17.0178C511.006 21.5078 517.206 27.4178 518.816 35.4978L522.576 54.3778L522.556 54.3578Z" fill="#45140C"/>
<path d="M437.036 94.2278C435.416 92.7878 432.016 90.8978 430.506 93.2878C429.206 95.3578 430.776 96.9178 431.846 97.4978C433.086 98.1578 435.196 98.5178 436.316 98.1678C435.876 99.6878 434.216 99.9178 432.896 101.308C434.996 103.488 436.876 101.478 438.786 101.728C437.676 104.608 433.996 103.728 431.306 102.488C428.166 101.038 426.406 98.7178 425.816 95.4978C425.396 93.2078 426.966 88.8878 430.146 88.4878C435.686 87.7978 440.836 89.3778 446.606 87.8578C443.446 82.9578 439.126 79.5278 434.816 75.8378C429.716 71.4778 426.226 65.8078 422.096 59.9678C425.916 53.2478 431.866 48.7278 437.206 43.3778C441.036 39.5378 444.386 34.9778 448.886 32.0778C451.676 30.2778 453.856 27.6578 456.406 26.2578C456.546 27.3978 457.236 28.4778 456.916 29.9878C455.736 29.7378 454.556 29.4278 453.946 29.7778C451.496 31.1678 455.866 31.8078 453.326 36.1878C452.436 37.7278 449.646 36.1278 448.166 36.3178C446.396 38.8078 448.456 42.1378 447.236 45.1278C446.846 46.0778 445.476 45.6778 444.686 45.5178C443.416 45.2578 443.996 43.7378 443.356 42.6178C442.516 41.1478 440.916 43.2578 440.146 44.3778C439.236 45.6978 441.326 46.0078 442.186 47.4678C442.816 48.5478 440.926 49.1878 440.366 49.7478C439.626 50.4878 438.306 49.0178 437.316 49.2178C435.086 49.6678 434.216 53.2178 431.926 53.8878C428.046 55.0278 424.476 58.1178 425.896 62.7678C429.126 61.4278 428.186 58.8378 430.396 56.6978C434.096 62.3178 425.726 65.8278 430.956 68.0278C431.186 67.0378 430.156 66.2778 430.346 65.8378C430.696 65.0378 431.906 65.2778 432.736 65.3578C433.706 65.4478 431.926 72.4978 434.836 72.7078C436.696 71.2478 437.786 71.0578 436.476 73.3778C443.396 80.7678 442.236 78.0478 445.006 78.5778C444.976 78.5778 452.726 87.1978 447.746 89.4378C444.656 90.8278 440.766 89.2678 437.796 91.0678C436.976 91.5578 436.966 93.4678 437.026 94.2478L437.036 94.2278Z" fill="#45140C"/>
<path d="M65.2161 52.458C57.0961 66.308 58.3161 69.928 64.0161 82.928C65.8661 87.138 71.3561 92.158 76.1661 92.508C78.9661 92.718 94.1061 90.578 94.3461 87.668C94.6061 84.428 88.8761 87.908 85.3461 84.708C82.2561 81.908 82.3661 74.048 86.6561 69.868C88.6961 67.878 92.8961 67.218 95.5261 68.918C103.316 73.968 90.7261 86.028 103.306 86.198C102.916 86.998 102.416 87.898 101.616 88.238C100.576 88.678 99.9161 87.408 98.7461 86.868C97.1061 86.108 95.6161 89.798 96.7061 90.778C98.7661 92.628 101.716 92.478 103.376 94.298C97.5961 92.308 91.5461 94.068 85.4761 96.628C85.4961 98.228 86.1861 99.188 86.5161 100.378C85.6561 99.988 83.6361 100.688 83.5161 99.548L83.0861 95.298C79.5861 92.738 74.4861 95.798 70.6961 93.788C67.7261 92.208 65.6161 88.898 61.6361 88.988C61.6361 74.438 54.0861 72.778 58.8961 59.988C60.1561 56.638 60.6261 51.588 65.1961 52.458H65.2161ZM91.3061 72.468C89.1961 72.338 87.4061 73.378 86.8861 74.938C86.4961 76.088 86.2961 81.088 87.6061 82.608C87.9461 82.998 89.0261 82.768 89.6161 82.728C91.4561 82.578 88.5661 75.678 91.3061 72.468Z" fill="#45140C"/>
<path d="M415.016 112.428C414.536 112.608 414.126 112.438 413.956 112.168C413.686 111.708 413.476 111.068 413.386 110.088C413.196 108.068 410.986 107.838 410.956 109.998C411.346 111.448 411.386 112.738 411.076 113.538C410.856 114.108 409.886 114.288 409.116 114.328C408.976 112.608 410.276 108.628 408.286 107.098C403.836 103.668 397.396 102.868 391.646 103.878C393.906 107.028 405.676 109.018 402.276 113.008C397.516 118.618 387.846 100.438 379.116 107.588C376.936 109.368 377.026 112.628 377.026 115.408C373.456 110.828 375.836 109.098 372.476 110.148C373.306 107.888 375.716 105.848 374.376 103.408C377.876 100.228 368.966 94.5082 376.316 94.2782C376.366 95.8482 376.266 98.3182 377.816 99.5982C379.616 101.078 382.016 100.488 382.806 98.4182C383.216 97.3382 382.636 95.4882 380.866 94.5982C379.276 93.7982 377.676 94.2282 376.316 94.2782C376.286 93.4282 377.806 91.5782 376.786 90.8682C375.246 90.4382 372.926 90.2982 372.266 89.0582C375.616 89.8682 379.476 87.3482 383.146 88.7282C386.956 90.1582 387.996 95.2982 388.476 99.3782C400.396 99.7182 414.566 98.2582 414.996 112.438L415.016 112.428Z" fill="#45140C"/>
<path d="M105.216 94.2378C105.546 93.5478 106.246 93.0978 106.846 92.2678C107.356 91.5778 105.896 90.8478 105.846 89.4778C108.466 88.2078 112.096 83.9878 110.616 80.7478C109.456 78.2278 105.926 76.9278 106.896 73.0978C104.426 74.2378 104.286 75.4878 103.286 76.3878C103.326 70.0178 107.236 66.0978 108.096 58.2478C96.8462 62.9378 82.1062 63.8478 71.0562 58.8278C69.5662 58.1578 68.5662 54.8478 70.2462 54.6278C74.0162 54.1278 76.9362 56.8778 80.4962 57.0978C89.1962 57.6478 102.196 58.4578 109.186 53.2678C112.406 50.8778 111.086 45.3878 110.326 42.3378C110.916 42.2878 113.086 42.3478 113.226 41.2078C113.676 37.6278 113.076 34.3778 113.296 31.2178C121.326 48.4078 111.906 59.6778 108.986 76.1978C111.046 78.2078 113.336 79.9278 112.916 82.7578C112.566 85.1278 110.656 86.4278 109.146 88.6478C107.756 90.6878 108.316 94.2678 105.226 94.2278L105.216 94.2378Z" fill="#45140C"/>
<path d="M248.246 126.358L214.246 134.448C210.766 139.138 209.706 147.858 210.716 153.468C211.006 155.088 213.286 156.358 212.216 157.998L184.146 157.968C186.526 148.628 189.426 139.808 193.166 131.558C192.956 133.368 193.986 135.728 192.616 137.798C191.686 139.208 190.026 143.638 192.406 144.168C197.136 145.208 202.016 143.628 206.356 146.488L204.746 154.158C203.186 155.138 201.486 153.688 200.006 155.558C203.186 156.448 205.906 156.588 209.256 156.508C210.116 150.498 207.356 136.268 212.696 132.788C216.886 130.058 222.736 130.578 227.466 129.518L234.236 128.008C239.156 126.908 243.526 125.948 248.246 126.378V126.358ZM203.286 152.948C204.246 150.708 205.156 149.458 205.326 147.568C201.356 146.618 197.426 145.398 193.706 146.788C191.406 147.638 190.396 150.718 190.366 153.098C194.936 153.608 198.776 153.518 203.296 152.958L203.286 152.948Z" fill="#45140C"/>
<path d="M61.236 124.298C57.816 128.068 65.496 138.438 69.426 141.188C70.976 142.278 71.996 145.228 70.336 146.478C67.036 148.968 63.176 148.818 59.186 148.868C52.826 148.938 46.066 151.068 39.916 149.258C35.586 147.988 34.976 142.018 33.416 138.598C35.216 139.928 37.296 140.198 39.456 140.308C39.276 142.868 40.906 144.678 43.136 145.958C44.896 146.968 48.456 147.258 49.496 144.788C50.006 143.548 48.136 140.408 46.856 139.948C44.336 139.028 41.736 140.418 39.456 140.308C39.756 135.978 48.086 141.248 51.296 135.218C53.126 133.578 56.796 134.888 59.116 134.048C60.346 130.898 55.856 129.298 57.826 125.318C58.366 124.238 59.976 124.278 61.236 124.288V124.298ZM66.166 143.788C63.016 141.898 61.256 139.368 58.706 136.948C56.686 135.038 52.936 137.438 51.266 139.288C56.406 145.578 56.716 145.238 66.166 143.788Z" fill="#45140C"/>
<path d="M533.376 94.4681C526.176 96.7481 518.356 98.2681 511.336 102.388C509.676 104.188 509.956 109.558 511.136 111.778C517.836 115.298 526.206 115.918 534.396 114.198C531.476 121.578 528.296 127.978 523.706 133.738C517.406 131.758 511.996 129.618 507.236 126.648C509.016 126.468 510.986 126.528 513.226 125.798C513.166 122.448 513.756 118.258 517.286 118.408C517.926 120.808 516.106 122.638 515.456 125.658C517.596 126.228 519.816 128.748 522.336 128.788C524.826 128.368 526.476 124.718 527.506 122.028L517.286 118.418C517.766 114.648 512.616 115.708 510.596 114.028C507.966 110.608 508.936 103.268 510.076 99.1381C521.506 97.4781 522.406 93.1381 533.366 94.4781L533.376 94.4681Z" fill="#45140C"/>
<path d="M600.196 106.448C600.766 108.628 593.316 112.878 596.956 114.298C599.086 115.128 602.386 113.628 606.276 114.628C607.736 115.008 607.876 116.728 608.806 118.368C609.776 114.268 613.386 114.448 616.296 114.378L604.466 125.158C602.796 125.518 601.146 122.878 599.916 122.698C595.076 121.988 580.096 121.028 580.666 113.968C580.776 112.598 582.136 109.788 584.116 110.118C590.476 111.178 595.116 108.998 600.196 106.438V106.448ZM596.886 118.138C592.966 114.238 588.566 112.718 583.876 114.158C587.556 117.488 592.066 119.928 596.886 118.138Z" fill="#45140C"/>
<path d="M377.216 83.3481C376.016 78.0081 382.536 83.1481 389.126 72.9281C385.656 70.9281 384.676 67.9681 385.446 64.3981C387.346 64.2581 388.846 64.2981 390.346 64.5381C388.146 65.9681 386.166 67.0181 387.596 69.5381C388.496 71.1181 391.016 73.3281 392.806 71.5481C394.596 69.7681 392.936 66.3481 391.406 64.7081C392.526 64.4081 394.216 65.0581 395.036 63.0081C392.476 62.9081 390.456 61.2181 390.546 58.6481C389.426 59.7481 389.426 60.7281 388.956 61.4981C388.296 62.5981 387.266 61.8181 386.406 61.9781C389.526 57.4481 390.176 39.4981 393.826 38.4881C394.586 38.2781 395.746 39.5281 395.736 40.6681C395.566 52.7781 389.496 56.2881 396.206 62.1681C399.326 64.9081 399.456 68.7881 398.306 71.7381C396.736 75.7581 393.666 75.1781 389.936 77.0381L377.236 83.3481H377.216Z" fill="#45140C"/>
<path d="M249.116 126.368C249.426 124.318 247.056 124.688 245.346 124.058C242.556 123.038 243.526 119.468 243.486 117.348L246.296 122.368C249.486 122.318 254.506 120.548 257.116 120.198C257.676 120.128 259.326 120.778 259.296 119.448C259.186 114.668 259.666 110.458 258.946 105.958C256.396 106.518 257.276 108.378 256.956 109.448C251.546 110.268 249.526 114.458 243.646 115.618C243.766 114.918 244.166 114.388 244.336 113.898C245.556 110.508 240.226 114.268 238.166 113.078C237.296 112.568 237.176 111.318 237.196 110.318C251.186 113.748 255.366 98.5879 259.406 100.878C261.296 101.948 262.516 118.668 261.736 121.058C260.086 126.048 253.286 126.258 249.136 126.368H249.116Z" fill="#45140C"/>
<path d="M315.506 132.488C315.406 134.258 314.196 135.898 314.316 138.118C317.786 140.988 322.406 140.928 326.346 139.908C326.056 137.578 325.656 136.618 325.296 135.488C325.636 134.608 326.266 134.408 326.556 134.758C327.286 135.638 326.796 137.088 328.046 138.408L332.036 127.668C333.676 128.258 333.646 129.638 334.196 130.398C330.316 133.248 331.596 138.268 332.966 142.478C335.226 149.428 310.646 144.558 309.486 139.528C309.136 137.988 309.166 136.488 310.006 135.028C312.726 130.278 315.406 122.878 317.286 122.148C317.956 127.788 311.276 130.358 315.496 132.478L315.506 132.488Z" fill="#45140C"/>
<path d="M18.236 93.3279C18.126 95.4079 18.386 97.5379 17.746 99.7979C16.516 99.9379 15.386 99.6079 15.326 100.248C15.226 101.328 15.226 103.028 15.956 103.758C18.266 106.068 21.606 105.828 24.396 106.318C19.836 107.908 14.796 108.448 9.10597 108.288C5.61597 108.188 1.61597 102.908 2.18597 99.6879C3.00597 95.0179 8.32597 94.6879 11.866 93.8279C14.396 93.2079 16.616 90.7979 18.236 93.3379V93.3279ZM13.916 103.298C14.036 101.238 13.016 99.4979 12.256 98.8379C11.376 98.0779 9.02597 98.0279 8.06597 99.1279C6.40597 101.038 7.41597 103.658 9.33597 104.678C10.606 105.358 13.776 105.668 13.916 103.298Z" fill="#45140C"/>
<path d="M481.376 134.368C479.606 134.258 477.616 134.018 475.326 134.658C473.916 135.048 473.056 138.368 474.076 139.418C476.056 141.468 479.016 140.868 481.246 141.088C480.646 143.798 477.586 141.948 474.996 143.088C477.026 144.628 480.196 144.268 482.946 143.998C483.796 143.918 482.786 141.298 483.146 140.798C483.506 140.298 481.776 140.158 481.216 140.268C481.486 138.308 481.606 136.338 481.386 134.368C483.566 134.508 485.246 133.298 487.206 132.448C487.306 135.148 485.296 137.578 485.556 140.428L486.086 146.228C479.786 146.658 473.816 145.408 467.786 142.438C470.076 137.048 470.706 131.898 472.286 126.898C473.146 124.168 472.736 123.558 471.896 120.938C470.486 116.508 474.636 100.378 462.276 100.358L440.296 100.318C440.386 99.8079 440.126 98.2679 441.296 98.2979C449.306 98.5279 457.256 97.8779 465.076 98.6279C471.126 99.2079 473.236 104.468 472.856 109.558C472.436 115.188 474.296 120.508 474.486 125.638C474.546 127.268 472.296 128.868 473.376 130.888C475.406 134.658 480.876 129.818 481.386 134.358L481.376 134.368Z" fill="#45140C"/>
<path d="M364.156 142.298C364.626 141.478 365.206 140.468 365.316 139.728C365.576 137.908 359.266 137.208 359.976 136.868C359.366 137.158 358.836 138.508 358.836 139.078L355.186 134.388C352.926 134.988 349.036 135.908 348.506 138.418C348.226 140.888 350.876 142.968 352.216 144.028C351.306 144.108 348.886 144.578 349.446 146.238C350.286 148.718 353.236 148.938 355.546 148.148L353.456 145.008C355.196 144.218 356.856 143.268 358.446 142.208C358.166 142.628 358.876 143.818 359.206 144.188C359.436 144.448 360.146 144.288 360.496 144.328C359.546 147.668 354.746 151.628 351.236 149.328C347.976 147.198 336.936 134.608 337.296 131.298C337.946 131.218 339.336 129.848 340.046 130.608C341.146 133.518 341.436 136.588 344.166 138.298C348.056 135.018 351.676 131.868 356.986 131.928C355.146 130.158 355.896 128.668 355.506 127.258C361.586 131.148 357.996 136.008 368.576 138.718C367.506 141.568 365.636 141.648 364.136 142.278L364.156 142.298Z" fill="#45140C"/>
<path d="M62.5161 14.3481C64.3961 15.9081 43.3861 20.8981 43.6161 20.8681C42.6361 21.0081 42.1961 22.9081 41.5061 23.1181C40.5161 23.4181 38.8461 19.9081 15.2561 28.1881C12.6661 29.0981 10.1961 28.8581 9.05607 32.4281C7.26607 29.7481 4.67607 30.0781 2.22607 30.3381L24.0661 23.3881C33.0961 20.5081 53.5961 15.9981 62.5161 14.3481Z" fill="#45140C"/>
<path d="M523.196 82.238C522.876 83.038 522.326 83.848 521.656 84.028C518.296 84.918 518.616 81.448 515.136 79.198C515.996 76.998 522.646 74.238 521.966 71.008C521.556 69.068 518.206 68.308 519.846 66.378C521.306 64.658 525.426 68.118 527.066 65.658C527.526 64.968 527.276 63.578 527.296 62.558C529.256 62.088 529.546 60.028 529.416 58.248C533.526 65.128 525.266 76.318 518.876 81.368C520.496 82.938 521.896 81.8881 523.206 82.2481L523.196 82.238Z" fill="#45140C"/>
<path d="M105.216 94.2379C104.606 94.2379 103.996 94.2379 103.386 94.2979C101.726 92.4779 98.7761 92.6279 96.7161 90.7779C95.6161 89.7979 97.1161 86.1079 98.7561 86.8679C99.9161 87.4079 100.586 88.6679 101.626 88.2379C102.426 87.8979 102.926 87.0079 103.316 86.1979L104.236 86.1579C104.736 86.1379 104.996 85.7279 105.016 85.2579C105.036 84.7279 104.856 84.0779 105.016 83.5579C105.526 81.9179 105.296 79.4679 103.276 79.2179L103.296 76.3979C104.296 75.4979 104.436 74.2479 106.906 73.1079C105.936 76.9379 109.466 78.2379 110.626 80.7579C112.116 83.9979 108.476 88.2179 105.856 89.4879C105.916 90.8579 107.366 91.5779 106.856 92.2779C106.246 93.1079 105.546 93.5579 105.226 94.2479L105.216 94.2379Z" fill="#45140C"/>
<path d="M615.436 94.4078C615.526 97.2378 611.156 96.6378 609.806 98.2678C607.316 101.248 606.646 105.918 602.236 106.028C602.896 104.078 605.076 103.668 606.746 101.088C598.696 97.6378 593.066 105.388 593.176 100.198C600.726 97.1478 602.206 99.7578 604.876 97.3478C603.416 95.3078 601.056 97.3478 599.696 95.9278C599.016 95.2278 599.286 93.8478 599.006 93.0678C598.656 92.0678 597.376 92.2278 596.356 92.4778C596.296 91.4178 596.526 88.5378 598.256 88.7978C600.706 89.1578 600.666 92.5178 601.236 94.7078C606.086 95.4578 610.796 94.0478 615.446 94.4278L615.436 94.4078Z" fill="#45140C"/>
<path d="M535.296 94.3381C535.646 91.2981 539.676 93.4081 539.286 89.8181C539.176 88.7881 538.386 88.6381 537.166 88.4481C537.596 86.9581 539.176 84.3281 537.826 82.8481C536.476 81.3681 534.036 83.1581 532.256 83.8381C530.816 84.3981 530.526 86.1781 530.586 88.0781C528.646 88.3381 529.166 86.3981 529.416 85.1081C529.566 84.3281 531.166 83.5581 531.196 82.4281C531.236 80.8581 528.926 81.4181 528.206 81.2081C531.566 77.8281 537.416 75.2281 541.616 79.3681C543.676 81.3981 542.916 84.2681 542.276 87.1481C541.326 91.3981 539.576 94.3581 535.286 94.3181L535.296 94.3381Z" fill="#45140C"/>
<path d="M33.2859 137.508C30.5559 134.998 31.4759 130.328 29.2059 127.308C27.4559 124.978 27.0459 123.528 28.7559 120.778C30.4659 118.028 30.7259 114.158 33.2959 112.328C33.3459 113.808 32.9559 115.638 33.5859 117.038C34.4259 117.008 35.4359 116.198 35.8059 116.348C36.3259 116.558 36.4959 117.408 36.3159 117.848C36.0459 118.488 35.0159 118.288 33.8559 118.298L31.3959 126.218C33.0859 130.138 33.7359 133.668 33.2959 137.518L33.2859 137.508Z" fill="#45140C"/>
<path d="M19.3263 93.3278C19.2963 89.6478 26.1463 92.5678 29.5063 88.4678C24.8063 82.8278 20.8063 77.6478 17.1763 72.3178C19.2263 71.2878 25.8263 81.3278 26.0563 81.6178L32.2763 89.4978C30.6563 91.5978 28.7863 94.0778 26.5863 95.2878C25.5063 95.2878 23.9163 93.9978 22.9463 94.4778C22.1263 94.8778 22.2563 97.2378 21.4663 97.2978C18.8363 97.4978 19.4863 94.6778 19.3163 93.3278H19.3263Z" fill="#45140C"/>
<path d="M593.166 100.188C591.696 98.7381 591.236 96.3482 590.486 94.4882C591.846 95.0382 592.996 94.9382 594.126 94.1382C594.786 93.6782 596.426 93.6982 596.356 92.4482C597.376 92.1982 598.646 92.0382 599.006 93.0382C599.286 93.8182 599.016 95.1982 599.696 95.8982C601.056 97.3082 603.426 95.2782 604.876 97.3182C602.206 99.7282 600.726 97.1282 593.176 100.168L593.166 100.188Z" fill="#45140C"/>
<path d="M529.416 58.2381C529.546 60.0281 529.256 62.0781 527.296 62.5481C524.796 62.4881 523.106 60.8981 521.466 59.2481C521.586 57.5681 521.696 55.8381 522.556 54.3481C526.406 57.6181 527.106 54.3681 529.416 58.2281V58.2381Z" fill="#45140C"/>
<path d="M415.016 112.428C415.076 114.408 415.306 116.358 415.196 118.348C413.616 119.148 411.846 119.238 409.366 119.598C408.936 119.868 409.846 121.108 409.706 121.488C409.526 121.778 409.626 122.328 409.396 122.568C408.096 122.178 406.526 122.788 405.046 121.348C406.546 120.128 408.176 120.168 408.906 119.408C410.146 118.128 409.406 116.588 409.086 115.368C409.006 115.048 409.156 114.648 409.116 114.328C409.886 114.278 410.856 114.108 411.076 113.538C411.386 112.738 411.346 111.448 410.956 109.998C410.986 107.838 413.196 108.058 413.386 110.088C413.476 111.068 413.686 111.708 413.956 112.168C414.116 112.438 414.536 112.608 415.016 112.428Z" fill="#45140C"/>
<path d="M364.156 142.298C362.886 142.838 361.846 143.928 360.516 144.348C360.166 144.318 359.456 144.468 359.226 144.208C358.886 143.838 358.186 142.638 358.466 142.228C359.056 141.338 358.846 139.988 358.846 139.078C358.846 138.508 359.366 137.158 359.986 136.868C359.276 137.198 365.576 137.908 365.326 139.728C365.226 140.468 364.646 141.478 364.166 142.298H364.156Z" fill="#45140C"/>
<path d="M505.466 126.358C500.736 125.008 495.766 123.058 491.626 126.278C492.176 123.968 493.056 122.818 495.056 122.388C498.496 121.658 507.066 125.118 505.456 126.358H505.466Z" fill="#45140C"/>
<path d="M657.216 65.198C656.146 69.628 654.606 74.268 651.366 77.518C650.986 76.648 655.146 63.738 657.216 65.198Z" fill="#45140C"/>
<path d="M625.306 113.328C622.546 111.398 621.446 113.838 617.176 114.278C614.996 113.478 623.536 110.258 623.766 110.218C626.216 109.888 624.746 112.148 625.296 113.328H625.306Z" fill="#45140C"/>
<path d="M224.336 86.3181C221.416 88.1881 217.066 87.3481 215.556 84.4281C212.396 77.6881 208.966 71.4181 204.676 65.2481C203.946 64.1981 203.846 62.7581 204.156 61.5581C206.576 63.1581 209.506 61.3381 212.266 61.6081C225.276 62.8681 228.976 52.7181 232.606 54.4381C236.426 56.2381 225.726 75.5781 233.316 79.4981C230.596 82.2581 227.396 84.3481 224.336 86.3181ZM217.226 64.3881C217.196 64.6381 217.226 64.8881 217.196 65.1381C216.256 64.8381 215.396 65.4981 215.236 66.4481C215.186 66.7381 215.196 67.0481 215.206 67.3381C212.316 70.6981 214.326 76.3381 217.296 79.3781L218.216 80.3181C217.876 81.3381 219.306 81.3281 219.866 81.3681C220.666 81.4281 222.416 81.5181 222.346 80.3081C227.656 78.3681 228.176 67.0381 224.346 64.2781C222.126 62.6781 219.166 61.9281 217.236 64.3881H217.226Z" fill="#DFD3BD"/>
<path d="M201.376 53.3978C201.326 53.0778 201.456 52.7178 201.376 52.4078C203.696 50.3878 206.206 48.4178 208.416 46.3678L209.296 45.5478C208.226 46.8078 225.356 39.9578 223.426 41.3078C226.436 39.2078 230.946 37.5078 234.016 41.4578C226.046 47.8278 217.366 46.8078 212.736 51.5278C221.646 56.7078 233.906 41.1378 234.286 48.6878C234.356 50.1678 233.376 49.4178 232.076 50.2978C224.286 55.6078 213.476 60.9378 204.156 57.3378C202.486 56.6678 202.406 54.2278 201.366 53.3778L201.376 53.3978Z" fill="#DFD3BD"/>
<path d="M256.956 109.448C257.536 113.008 257.306 116.608 257.116 120.198C254.506 120.548 249.486 122.318 246.296 122.368L243.486 117.348C243.476 116.788 243.546 116.168 243.646 115.618C249.526 114.458 251.546 110.268 256.956 109.448Z" fill="#DFD3BD"/>
<path d="M215.556 84.4378C208.416 86.3178 211.136 74.2278 206.516 73.0578C205.316 72.7578 203.496 74.5478 202.156 73.9078C200.446 73.0878 197.506 73.1278 198.656 70.6178C198.636 70.6678 202.366 70.3478 204.676 65.2578C208.966 71.4278 212.396 77.6978 215.556 84.4378Z" fill="#45140C"/>
<path d="M208.416 46.3779C206.206 48.4279 203.696 50.3879 201.376 52.4179C200.836 50.3779 201.906 48.9479 203.246 47.7379C204.766 46.3579 206.516 46.0879 208.416 46.3879V46.3779Z" fill="#45140C"/>
<path d="M109.406 42.2781L110.316 42.3481C111.066 45.3981 112.386 50.8881 109.176 53.2781C102.186 58.4581 89.1858 57.6481 80.4858 57.1081C76.9258 56.8881 74.0058 54.1281 70.2358 54.6381C68.5558 54.8581 69.5558 58.1681 71.0458 58.8381C82.1058 63.8581 96.8358 62.9581 108.086 58.2581C107.226 66.1081 103.316 70.0281 103.276 76.3981L103.256 79.2181C103.256 80.7781 102.756 83.7581 104.996 83.5581C104.836 84.0681 105.016 84.7281 104.996 85.2581C104.276 84.9081 104.306 85.7281 104.216 86.1581L103.296 86.1981C90.7158 86.0381 103.316 73.9681 95.5158 68.9181C92.8958 67.2181 88.6858 67.8881 86.6458 69.8681C82.3558 74.0481 82.2558 81.9081 85.3358 84.7081C88.8558 87.8981 94.5958 84.4281 94.3358 87.6681C94.0958 90.5881 78.9658 92.7181 76.1558 92.5081C71.3458 92.1481 65.8558 87.1281 64.0058 82.9281C58.3058 69.9381 57.0858 66.3181 65.2058 52.4581C65.6358 51.7281 66.5058 50.3581 67.3858 50.1381C73.3158 48.6581 72.7558 42.3381 95.2558 42.2981L109.386 42.2681L109.406 42.2781ZM87.6658 51.4481L97.4258 51.5181C101.526 51.5481 105.906 49.1081 106.576 45.0081C105.666 43.8081 102.816 44.9381 101.826 45.6581C97.8358 48.5581 93.8958 48.1081 89.3858 48.4881C86.3858 48.7381 83.9758 49.9081 81.2958 46.9881C81.2458 50.6181 84.5558 51.4181 87.6658 51.4381V51.4481Z" fill="#DFD3BD"/>
<path d="M109.406 42.2781L95.2763 42.3081C72.7663 42.3481 73.3263 48.6581 67.4062 50.1481C68.2862 47.8781 70.4262 43.5881 73.3262 42.9581L83.3262 40.7781C83.5262 40.7381 114.276 38.7181 109.416 42.2781H109.406Z" fill="#45140C"/>
<path d="M374.296 40.3278C374.996 41.0578 376.176 41.7678 377.216 41.6878C378.006 42.8678 377.976 44.4578 378.016 45.7478C378.076 47.9778 375.156 47.4078 373.786 48.4378C353.236 63.8078 328.506 45.9478 330.526 51.0678C332.816 56.8478 338.916 58.0578 344.196 58.6078C352.586 59.4778 361.246 60.1478 368.716 55.5978C369.956 54.8478 374.066 52.8878 374.156 55.5178C374.316 60.4078 370.026 64.4778 369.396 69.3178C369.326 72.1578 372.766 74.4578 372.086 77.2978C371.366 79.4178 367.876 76.6378 366.326 76.6778C364.226 76.7278 366.046 79.8178 366.796 80.7978C364.396 85.1278 358.626 84.6578 354.306 86.0778C352.116 86.7978 350.066 86.1878 347.976 84.6878C346.176 83.3978 343.436 84.1278 341.596 82.9078L331.426 76.1978C325.406 66.7078 320.046 55.5478 330.156 46.5278C330.496 46.5378 330.896 46.1478 331.216 46.0278C351.756 37.9078 352.346 40.2378 374.306 40.3178L374.296 40.3278ZM365.736 50.5778C368.136 50.5778 369.716 46.5578 368.476 46.5478L350.146 46.3978C348.956 46.3978 349.026 49.0578 349.736 49.3678C350.306 49.6078 351.216 50.5478 352.336 50.5478L365.736 50.5678V50.5778ZM361.546 66.1778C357.506 63.9978 353.756 66.0078 351.196 68.8278C348.636 71.6478 348.196 76.4678 351.016 79.5978C353.216 82.0378 356.406 81.6678 358.806 80.4578C363.556 78.0678 365.066 68.0778 361.536 66.1778H361.546Z" fill="#DFD3BD"/>
<path d="M372.336 102.418C373.006 102.518 373.596 103.498 374.396 103.408C375.736 105.848 373.326 107.898 372.496 110.148C371.836 111.928 371.436 113.848 370.376 115.508C369.266 114.268 368.956 112.678 366.826 111.668C363.496 110.088 352.726 104.878 353.016 101.898C353.146 100.538 353.316 98.6579 355.206 98.6479C357.546 98.6479 359.396 100.478 361.646 100.808L372.346 102.418H372.336Z" fill="#DFD3BD"/>
<path d="M374.296 40.3282C352.336 40.2482 351.746 37.9082 331.206 46.0382C334.086 35.0182 348.226 40.5382 352.186 36.6182C353.346 37.0082 354.166 38.2182 355.396 38.2282L373.266 38.3782C374.506 38.3882 373.956 39.9682 374.306 40.3282H374.296Z" fill="#45140C"/>
<path d="M318.216 130.478C319.276 132.368 321.246 134.138 323.346 134.388C323.866 134.748 324.486 135.568 325.286 135.478C325.646 136.608 326.046 137.578 326.336 139.898C322.406 140.918 317.786 140.968 314.306 138.108C314.186 135.898 315.406 134.248 315.496 132.478L315.556 131.468C316.026 131.378 316.206 130.818 316.416 130.518L318.206 130.478H318.216Z" fill="#DFD3BD"/>
<path d="M330.136 46.5377C320.036 55.5577 325.396 66.7178 331.406 76.2078C323.846 71.2178 324.096 71.3978 322.996 63.1877C322.016 55.9177 323.536 46.3377 330.136 46.5377Z" fill="#45140C"/>
<path d="M390.336 64.5381L391.396 64.7081C392.936 66.3581 394.636 69.7181 392.796 71.5481C390.956 73.3781 388.486 71.1181 387.586 69.5381C386.156 67.0181 388.136 65.9681 390.336 64.5381Z" fill="#DFD3BD"/>
<path d="M323.346 134.398C321.246 134.148 319.266 132.368 318.216 130.488C320.786 130.428 322.846 132.008 323.346 134.398Z" fill="#45140C"/>
<path d="M315.556 131.478C314.996 130.708 315.616 130.068 316.416 130.528C316.206 130.828 316.026 131.398 315.556 131.478Z" fill="#45140C"/>
<path d="M521.456 59.2482C523.096 60.8982 524.786 62.4982 527.286 62.5482C527.266 63.5682 527.516 64.9582 527.056 65.6482C525.426 68.1082 521.296 64.6582 519.836 66.3682C518.196 68.2882 521.546 69.0482 521.956 70.9982C522.636 74.2282 515.986 76.9882 515.126 79.1882C510.696 79.9482 507.506 84.4382 503.096 85.7382C495.376 88.0182 489.916 83.0782 485.306 78.3582C484.416 74.4282 482.306 70.9682 483.226 65.7882C494.926 62.0782 504.876 54.3682 512.156 44.3382C517.096 37.5282 516.896 54.6582 521.446 59.2482H521.456ZM514.226 61.2082C513.536 60.5082 512.586 60.1182 511.266 59.1182C508.946 57.3482 505.796 56.5182 503.896 58.4482C501.496 60.8982 500.646 63.6782 502.066 66.7882C503.486 69.8982 505.246 73.0382 507.886 73.3682C511.556 73.8282 515.266 73.4882 516.756 69.8782C517.966 66.9482 516.056 63.7382 514.216 61.1982L514.226 61.2082Z" fill="#DFD3BD"/>
<path d="M537.166 88.4478C537.106 88.6578 537.146 88.9178 537.146 89.1378C535.156 89.3678 532.976 89.5778 531.396 88.1578C531.136 88.1578 530.856 88.0478 530.596 88.0778C530.536 86.1778 530.826 84.3978 532.266 83.8378C534.036 83.1578 536.426 81.2978 537.836 82.8478C539.246 84.3978 537.596 86.9578 537.176 88.4478H537.166Z" fill="#DFD3BD"/>
<path d="M437.036 94.228C437.086 94.818 437.666 95.688 437.686 96.598C437.696 97.368 436.486 97.588 436.316 98.168C435.196 98.518 433.086 98.168 431.846 97.498C430.776 96.928 429.206 95.358 430.506 93.288C432.016 90.898 435.416 92.788 437.036 94.228Z" fill="#DFD3BD"/>
<path d="M537.146 89.148C537.126 90.998 535.066 90.258 533.786 90.398C532.156 90.578 530.696 90.158 531.396 88.168C532.976 89.588 535.156 89.378 537.146 89.148Z" fill="#45140C"/>
<path d="M525.136 88.9281C526.166 87.7281 527.026 88.2681 527.296 88.8381C527.566 89.4081 527.336 90.0381 526.786 90.3281C526.196 90.6381 525.256 90.5281 525.136 88.9281Z" fill="#45140C"/>
<path d="M493.796 16.9578C494.144 16.9578 494.426 16.6757 494.426 16.3278C494.426 15.9798 494.144 15.6978 493.796 15.6978C493.448 15.6978 493.166 15.9798 493.166 16.3278C493.166 16.6757 493.448 16.9578 493.796 16.9578Z" fill="#45140C"/>
<path d="M448.796 48.3281C449.072 48.3281 449.296 48.1043 449.296 47.8281C449.296 47.552 449.072 47.3281 448.796 47.3281C448.52 47.3281 448.296 47.552 448.296 47.8281C448.296 48.1043 448.52 48.3281 448.796 48.3281Z" fill="#45140C"/>
<path d="M449.796 46.3281C450.072 46.3281 450.296 46.1043 450.296 45.8281C450.296 45.552 450.072 45.3281 449.796 45.3281C449.52 45.3281 449.296 45.552 449.296 45.8281C449.296 46.1043 449.52 46.3281 449.796 46.3281Z" fill="#45140C"/>
<path d="M625.316 61.4982C630.056 70.3182 628.836 80.2982 623.146 88.5182C621.046 90.7282 617.806 91.7582 616.246 94.3982C615.996 94.3382 615.696 94.4282 615.436 94.3982C610.786 94.0182 606.076 95.4282 601.226 94.6782C600.656 92.4882 600.696 89.1282 598.246 88.7682C596.516 88.5182 596.286 91.3882 596.346 92.4482C596.416 93.6982 594.776 93.6682 594.116 94.1382C592.806 92.7282 593.736 90.9582 594.186 89.0382C596.256 80.1082 585.326 77.5082 586.436 74.8382C587.546 72.1682 596.416 73.1282 604.116 67.0282C607.436 64.3982 609.776 59.4182 613.486 57.7082C617.936 55.6582 621.796 60.0982 625.306 61.4882L625.316 61.4982ZM597.386 77.3582C597.406 78.3182 597.186 79.2782 597.286 80.2382C597.416 81.4582 597.636 83.2182 599.086 83.4182C598.806 84.6982 599.846 85.4282 600.336 86.3682C601.706 88.9582 605.896 90.8682 608.636 88.4882C609.836 87.4482 610.426 85.0682 611.696 83.5682C613.536 81.3882 611.496 77.6882 610.246 76.0082C608.536 73.6982 605.346 73.1282 602.366 73.3082C599.696 73.4782 597.346 75.0182 597.376 77.3582H597.386Z" fill="#DFD3BD"/>
<path d="M597.306 54.3479C600.826 55.6179 604.076 54.2779 607.986 56.3179C602.246 64.5679 592.296 70.7779 582.716 67.9979C582.066 67.2979 582.046 65.5579 581.626 64.5779C586.226 65.3379 596.436 62.3379 595.126 57.9479C593.816 53.5579 589.646 61.2679 581.206 61.9579C579.656 62.0879 578.626 58.0279 580.416 57.5579C582.856 56.9179 585.096 55.8679 587.136 55.6679C591.166 55.2779 594.166 54.4079 597.306 54.3379V54.3479Z" fill="#DFD3BD"/>
<path d="M637.056 136.288C637.886 136.948 638.656 137.658 639.386 138.428C639.106 139.478 639.286 141.278 638.216 141.808C637.136 142.348 630.056 143.908 628.786 142.168C628.156 141.308 627.926 138.688 628.996 137.928C631.426 136.198 634.496 136.508 637.056 136.288Z" fill="#DFD3BD"/>
<path d="M616.246 94.3981C617.806 91.7481 621.046 90.7281 623.146 88.5181C622.326 89.6981 622.336 91.9681 621.356 93.0281C619.736 94.7681 618.246 94.8581 616.246 94.4081V94.3981Z" fill="#45140C"/>
<path d="M676.066 107.878C674.156 110.318 671.406 110.708 668.546 109.818C668.076 107.058 668.176 104.508 668.596 101.548C670.436 100.058 672.776 99.6878 675.076 100.538L676.066 107.878Z" fill="#DFD3BD"/>
<path d="M184.966 15.288C184.706 16.298 183.166 16.108 182.776 16.248C179.976 17.298 179.416 8.08799 182.306 4.93799C185.096 7.88799 185.906 11.578 184.966 15.288Z" fill="#DFD3BD"/>
<path d="M409.116 114.338C409.156 114.668 409.006 115.058 409.086 115.378C405.276 120.278 399.286 122.218 393.346 122.178L387.496 122.138C386.826 119.838 383.436 119.178 381.286 118.198C379.576 117.428 378.216 116.928 377.026 115.408C377.026 112.628 376.936 109.368 379.116 107.588C387.846 100.448 397.516 118.618 402.276 113.008C405.666 109.008 393.906 107.028 391.646 103.878C397.396 102.868 403.836 103.678 408.286 107.098C410.276 108.628 408.976 112.608 409.116 114.328V114.338Z" fill="#DFD3BD"/>
<path d="M409.396 122.578C409.626 122.338 409.526 121.788 409.706 121.498C411.086 122.108 411.206 123.808 411.156 124.848C411.066 126.468 410.076 128.848 408.196 128.958C405.696 129.098 402.946 127.498 400.376 128.678L401.016 132.638C384.546 135.118 394.916 134.318 385.116 130.018C388.956 126.048 394.056 127.058 398.836 126.508C400.556 126.308 403.166 121.808 405.146 124.188C405.636 124.768 404.146 126.598 404.356 127.078C404.566 127.558 406.506 127.678 406.746 127.168C407.576 125.398 408.356 123.698 409.406 122.598L409.396 122.578Z" fill="#DFD3BD"/>
<path d="M377.036 115.408C378.226 116.928 379.586 117.428 381.296 118.198C381.356 119.528 382.276 120.538 382.936 121.248C384.316 122.728 385.986 122.128 387.496 122.138L393.346 122.178C391.876 124.308 389.166 125.398 386.446 125.448C384.696 124.248 382.846 124.598 381.346 125.408L379.236 123.498C378.956 123.238 378.796 122.778 378.386 122.658C378.146 122.588 377.826 122.748 377.576 122.718C376.216 122.538 375.236 121.338 374.886 119.788C374.296 117.148 371.606 116.888 370.366 115.508C371.426 113.848 371.836 111.928 372.486 110.148C375.846 109.098 373.466 110.828 377.036 115.408Z" fill="#45140C"/>
<path d="M379.226 123.498L381.336 125.408C381.176 126.998 382.906 128.448 382.876 130.688C382.856 132.198 378.346 131.688 377.716 130.228C376.556 127.558 377.216 124.978 377.566 122.718C377.826 122.748 378.136 122.588 378.376 122.658C378.626 122.968 378.906 123.248 379.226 123.498Z" fill="#DFD3BD"/>
<path d="M497.236 40.3479L500.956 39.8079C499.716 44.7379 495.046 46.7079 490.906 50.2779C494.956 55.1979 508.546 39.6779 507.596 34.6979C509.446 33.9279 511.196 33.8079 512.856 32.8579C514.836 37.7679 511.126 39.7479 508.906 42.7079C504.126 49.0879 493.846 59.4179 485.106 60.2979C487.836 46.4579 489.896 48.1479 497.236 40.3379V40.3479Z" fill="#DFD3BD"/>
<path d="M91.3058 72.468C88.5658 75.668 91.4558 82.578 89.6158 82.728C89.0258 82.778 87.9458 83.008 87.6058 82.608C86.2958 81.088 86.4958 76.088 86.8858 74.938C87.4158 73.378 89.1958 72.338 91.3058 72.468Z" fill="#DFD3BD"/>
<path d="M376.336 94.2781C377.696 94.2381 379.306 93.7981 380.886 94.5981C382.656 95.4981 383.236 97.3481 382.826 98.4181C382.036 100.488 379.636 101.078 377.836 99.5981C376.286 98.3181 376.376 95.8481 376.336 94.2781Z" fill="#DFD3BD"/>
<path d="M203.286 152.948C198.776 153.508 194.936 153.598 190.356 153.088C190.386 150.708 191.396 147.638 193.696 146.778C197.426 145.398 201.346 146.608 205.316 147.558C205.156 149.448 204.246 150.708 203.276 152.938L203.286 152.948Z" fill="#DFD3BD"/>
<path d="M66.1661 143.788C56.7161 145.228 56.4061 145.568 51.2661 139.288C52.9361 137.438 56.6861 135.038 58.7061 136.948C61.2661 139.368 63.0161 141.908 66.1661 143.788Z" fill="#DFD3BD"/>
<path d="M39.456 140.308C41.736 140.418 44.336 139.038 46.856 139.948C48.126 140.408 50.006 143.558 49.496 144.788C48.466 147.258 44.906 146.968 43.136 145.958C40.896 144.668 39.276 142.868 39.456 140.308Z" fill="#DFD3BD"/>
<path d="M517.296 118.408L527.516 122.018C526.486 124.718 524.836 128.358 522.346 128.778C519.826 128.738 517.606 126.218 515.466 125.648C516.116 122.628 517.936 120.798 517.296 118.398V118.408Z" fill="#DFD3BD"/>
<path d="M596.886 118.138C592.066 119.928 587.556 117.488 583.876 114.158C588.576 112.718 592.966 114.248 596.886 118.138Z" fill="#DFD3BD"/>
<path d="M257.116 120.198C257.296 116.608 257.526 113.008 256.956 109.448C257.286 108.378 256.396 106.518 258.946 105.958C259.666 110.458 259.176 114.668 259.296 119.448C259.326 120.778 257.686 120.128 257.116 120.198Z" fill="#45140C"/>
<path d="M13.9163 103.298C13.7763 105.668 10.6163 105.358 9.33626 104.678C7.41626 103.658 6.40625 101.038 8.06625 99.1281C9.02625 98.0281 11.3763 98.0781 12.2563 98.8381C13.0163 99.4981 14.0363 101.238 13.9163 103.298Z" fill="#DFD3BD"/>
<path d="M481.376 134.368C481.596 136.338 481.486 138.308 481.206 140.268C481.166 140.528 481.256 140.818 481.236 141.078C479.006 140.858 476.046 141.458 474.066 139.408C473.046 138.358 473.906 135.038 475.316 134.648C477.606 134.018 479.596 134.248 481.366 134.358L481.376 134.368Z" fill="#DFD3BD"/>
<path d="M481.246 141.088C481.266 140.818 481.176 140.538 481.216 140.278C481.776 140.178 483.496 140.328 483.146 140.808C482.796 141.288 483.796 143.928 482.946 144.008C480.196 144.278 477.026 144.638 474.996 143.098C477.586 141.958 480.646 143.808 481.246 141.098V141.088Z" fill="#45140C"/>
<path d="M358.836 139.078C358.836 139.988 359.046 141.338 358.456 142.228C356.866 143.288 355.206 144.238 353.466 145.028L352.216 144.048C350.866 142.988 348.216 140.908 348.506 138.438C349.036 135.928 352.916 135.008 355.186 134.408L358.836 139.098V139.078Z" fill="#DFD3BD"/>
<path d="M352.226 144.038L353.476 145.018L355.566 148.158C353.246 148.938 350.296 148.718 349.466 146.248C348.906 144.588 351.326 144.118 352.236 144.038H352.226Z" fill="#45140C"/>
<path d="M105.006 83.5578C102.766 83.7578 103.256 80.7778 103.266 79.2178C105.286 79.4678 105.516 81.9178 105.006 83.5578Z" fill="#45140C"/>
<path d="M104.226 86.1581C104.316 85.7281 104.296 84.9081 105.006 85.2581C104.986 85.7281 104.716 86.1381 104.226 86.1581Z" fill="#45140C"/>
<path d="M224.346 64.2781C228.166 67.0481 227.656 78.3781 222.346 80.3081C221.126 80.7481 219.486 80.0281 218.216 80.3081L217.296 79.3681C218.936 79.0381 220.306 78.4881 221.286 77.1581C221.956 76.2481 222.866 75.6181 222.946 74.5781C223.066 72.8381 222.556 71.4181 220.806 71.4781C219.516 71.5281 218.006 71.8381 217.376 73.0781C214.576 72.7081 215.326 69.5581 215.206 67.3281C215.186 67.0381 215.186 66.7281 215.236 66.4381C216.186 66.7281 217.046 66.0881 217.196 65.1281C217.236 64.8781 217.196 64.6281 217.226 64.3781L224.336 64.2681L224.346 64.2781Z" fill="#45140C"/>
<path d="M217.376 73.0879C217.456 74.0879 217.286 75.2579 217.866 76.2679C218.446 77.2779 220.126 77.1379 221.286 77.1679C220.306 78.4979 218.936 79.0579 217.296 79.3779C214.326 76.3379 212.316 70.6979 215.206 67.3379C215.326 69.5679 214.576 72.7179 217.376 73.0879Z" fill="#45140C"/>
<path d="M224.346 64.2782L217.236 64.3882C219.166 61.9182 222.136 62.6682 224.346 64.2782Z" fill="#45140C"/>
<path d="M222.336 80.3082C222.406 81.5182 220.656 81.4182 219.856 81.3682C219.306 81.3282 217.866 81.3382 218.206 80.3182C219.466 80.0382 221.116 80.7582 222.336 80.3182V80.3082Z" fill="#45140C"/>
<path d="M217.196 65.138C217.036 66.098 216.186 66.738 215.236 66.448C215.396 65.498 216.256 64.838 217.196 65.138Z" fill="#45140C"/>
<path d="M87.666 51.4478C84.566 51.4278 81.246 50.6278 81.296 46.9978C83.976 49.9178 86.386 48.7478 89.386 48.4978C93.906 48.1178 97.836 48.5578 101.826 45.6678C102.816 44.9478 105.666 43.8178 106.576 45.0178C105.896 49.1178 101.526 51.5578 97.426 51.5278L87.666 51.4578V51.4478Z" fill="#45140C"/>
<path d="M361.546 66.1782C365.076 68.0782 363.566 78.0782 358.816 80.4582C356.416 81.6682 353.226 82.0382 351.026 79.5982C348.206 76.4682 348.636 71.6782 351.206 68.8282C353.776 65.9782 357.516 63.9982 361.556 66.1782H361.546ZM355.786 78.3782C356.056 75.2182 356.356 72.7082 356.266 69.7982C353.606 70.1482 352.556 71.8882 352.616 73.9282C352.676 75.8282 352.556 77.9682 355.786 78.3782Z" fill="#45140C"/>
<path d="M365.736 50.5777L352.336 50.5577C351.216 50.5577 350.306 49.6177 349.736 49.3777C349.016 49.0677 348.956 46.3977 350.146 46.4077L368.476 46.5577C369.716 46.5577 368.136 50.5877 365.736 50.5877V50.5777Z" fill="#45140C"/>
<path d="M511.266 59.1078C511.896 62.0178 503.826 58.3878 503.246 61.7378C502.966 63.3878 503.406 64.9178 505.026 65.5478C505.516 66.7878 505.746 68.7178 506.946 69.2878C508.846 70.1878 510.906 71.0378 512.646 69.5878C513.636 68.7578 513.526 66.0578 512.196 65.6078C511.426 65.3478 510.226 66.5278 509.556 66.5978C508.886 66.6678 508.196 66.1778 507.526 65.5078C509.646 63.0978 513.596 65.5878 514.226 61.1878C516.066 63.7278 517.976 66.9378 516.766 69.8678C515.276 73.4778 511.566 73.8178 507.896 73.3578C505.266 73.0278 503.496 69.8778 502.076 66.7778C500.656 63.6678 501.506 60.8878 503.906 58.4378C505.796 56.5078 508.956 57.3378 511.276 59.1078H511.266Z" fill="#45140C"/>
<path d="M514.226 61.2082C513.596 65.6082 509.646 63.1182 507.526 65.5282L505.026 65.5582C503.406 64.9282 502.966 63.3982 503.246 61.7482C503.816 58.3882 511.886 62.0182 511.266 59.1182C512.586 60.1282 513.526 60.5182 514.226 61.2082Z" fill="#45140C"/>
<path d="M600.336 86.368C601.406 85.888 602.866 85.378 603.536 84.318C604.286 84.408 605.166 86.078 606.016 85.818C608.636 84.808 609.336 79.558 606.306 78.548C604.566 77.968 604.756 80.698 604.276 81.368C599.116 81.398 602.806 75.128 597.386 77.368C597.346 75.028 599.696 73.488 602.376 73.318C605.356 73.138 608.546 73.708 610.256 76.018C611.506 77.698 613.546 81.398 611.706 83.578C610.436 85.078 609.846 87.458 608.646 88.498C605.906 90.878 601.716 88.968 600.346 86.378L600.336 86.368Z" fill="#45140C"/>
<path d="M604.276 81.358C603.786 82.028 603.976 83.628 603.546 84.308C602.866 85.368 601.406 85.878 600.346 86.358C599.846 85.418 598.816 84.688 599.096 83.408C599.256 82.668 599.456 81.838 599.206 80.978C599.006 80.288 598.086 79.748 597.296 80.228C597.196 79.268 597.416 78.308 597.396 77.348C602.816 75.118 599.126 81.378 604.286 81.348L604.276 81.358Z" fill="#45140C"/>
<path d="M599.086 83.418C597.636 83.228 597.416 81.468 597.286 80.238C598.066 79.748 598.986 80.298 599.196 80.988C599.446 81.848 599.246 82.678 599.086 83.418Z" fill="#45140C"/>
<path d="M387.506 122.138C385.986 122.128 384.316 122.728 382.946 121.248C382.286 120.538 381.366 119.528 381.306 118.198C383.456 119.168 386.846 119.828 387.516 122.138H387.506Z" fill="#45140C"/>
<path d="M379.226 123.498C378.916 123.248 378.626 122.968 378.376 122.658C378.776 122.778 378.936 123.238 379.226 123.498Z" fill="#45140C"/>
<path d="M221.286 77.1581C220.126 77.1381 218.466 77.298 217.866 76.258C217.266 75.2181 217.456 74.078 217.376 73.078C218.006 71.838 219.516 71.5281 220.806 71.4781C222.556 71.4081 223.066 72.838 222.946 74.578C222.876 75.618 221.956 76.2481 221.286 77.1581Z" fill="#DFD3BD"/>
<path d="M355.786 78.3779C352.546 77.9579 352.666 75.8179 352.616 73.9279C352.556 71.8879 353.606 70.1479 356.266 69.7979C356.356 72.7079 356.056 75.2179 355.786 78.3779Z" fill="#DFD3BD"/>
<path d="M507.526 65.5278C508.186 66.1978 508.876 66.6978 509.556 66.6178C510.236 66.5378 511.426 65.3678 512.196 65.6278C513.526 66.0778 513.636 68.7778 512.646 69.6078C510.916 71.0578 508.846 70.2078 506.946 69.3078C505.746 68.7378 505.516 66.7978 505.026 65.5678L507.526 65.5378V65.5278Z" fill="#DFD3BD"/>
<path d="M603.546 84.3078C603.976 83.6278 603.786 82.0278 604.276 81.3578C604.766 80.6878 604.576 77.9578 606.306 78.5378C609.336 79.5478 608.636 84.8078 606.016 85.8078C605.176 86.0678 604.286 84.3978 603.536 84.3078H603.546Z" fill="#DFD3BD"/>
<ellipse cx="73.9858" cy="81.9878" rx="8" ry="7" fill="#E5B1A4"/>
<ellipse cx="339.986" cy="72.9878" rx="8" ry="7" fill="#E5B1A4"/>
<ellipse cx="497.986" cy="77.9878" rx="8" ry="7" fill="#E5B1A4"/>
<ellipse cx="619.986" cy="73.9878" rx="8" ry="7" fill="#E5B1A4"/>
</svg>
